<svg xmlns="http://www.w3.org/2000/svg" version="1.1" xmlns:xlink="http://www.w3.org/1999/xlink" xmlns:svgjs="http://svgjs.dev/svgjs" width="1000" height="623" viewBox="0 0 1000 623"><g transform="matrix(1,0,0,1,-0.6060606060606233,0.2522267206477409)"><svg viewBox="0 0 396 247" data-background-color="#000000" preserveAspectRatio="xMidYMid meet" height="623" width="1000" xmlns="http://www.w3.org/2000/svg" xmlns:xlink="http://www.w3.org/1999/xlink"><g id="tight-bounds" transform="matrix(1,0,0,1,0.2400000000000091,-0.09999999999999432)"><svg viewBox="0 0 395.52 247.2" height="247.2" width="395.52"><g><svg></svg></g><g><svg viewBox="0 0 395.52 247.2" height="247.2" width="395.52"><g transform="matrix(1,0,0,1,140.58052114285712,47.215199999999996)"><svg viewBox="0 0 114.35895771428572 152.7696" height="152.7696" width="114.35895771428572"><g><svg viewBox="0 0 114.35895771428572 152.7696" height="152.7696" width="114.35895771428572"><g><svg viewBox="0 0 114.35895771428572 152.7696" height="152.7696" width="114.35895771428572"><g><svg viewBox="0 0 114.35895771428572 152.7696" height="152.7696" width="114.35895771428572"><g id="textblocktransform"><svg viewBox="0 0 114.35895771428572 152.7696" height="152.7696" width="114.35895771428572" id="textblock"><g><svg viewBox="0 0 114.35895771428572 152.7696" height="152.7696" width="114.35895771428572"><g transform="matrix(1,0,0,1,0,0)"><svg width="114.35895771428572" viewBox="0.4000000059604645 -35 26.200000762939453 35" height="152.7696" data-palette-color="#804dee"><path d="M21.75 0L18.95-9.5 8.1-9.5 5.3 0 0.4 0 11.15-35 15.85-35 26.6 0 21.75 0ZM9.35-13.75L17.7-13.75 13.5-27.95 9.35-13.75Z" opacity="1" transform="matrix(1,0,0,1,0,0)" fill="#804dee" class="wordmark-text-0" data-fill-palette-color="primary" id="text-0"></path></svg></g></svg></g></svg></g></svg></g></svg></g></svg></g></svg></g><path d="M322.882 41.215L322.882 0 75.682 0 75.682 247.2 322.882 247.2 322.882 205.985 309.105 205.985 309.105 233.423 89.459 233.423 89.459 13.777 309.105 13.777 309.105 41.215Z" fill="#804dee" stroke="transparent" data-fill-palette-color="primary"></path></svg></g><defs></defs></svg><rect width="395.52" height="247.2" fill="none" stroke="none" visibility="hidden"></rect></g></svg></g></svg>